<?xml version="1.0" standalone="no"?>
<!DOCTYPE svg PUBLIC "-//W3C//DTD SVG 20010904//EN"
 "http://www.w3.org/TR/2001/REC-SVG-20010904/DTD/svg10.dtd">
<svg version="1.0" xmlns="http://www.w3.org/2000/svg"
 width="800.000000pt" height="95.000000pt" viewBox="0 0 800.000000 95.000000"
 preserveAspectRatio="xMidYMid meet">

<g transform="translate(0.000000,95.000000) scale(0.100000,-0.100000)"
fill="#000000" stroke="none">
<path d="M92 809 l-52 -61 0 -159 0 -159 315 0 315 0 0 -81 c0 -66 -4 -86 -21
-110 l-20 -29 -306 -2 -307 -3 45 -52 44 -52 347 0 346 -1 51 57 51 57 0 163
0 163 -315 0 -315 0 0 83 c0 74 3 86 23 105 23 21 30 22 279 22 l256 0 46 54
c25 30 46 57 46 60 0 3 -175 6 -388 6 l-389 0 -51 -61z"/>
<path d="M1007 863 c-4 -3 -7 -177 -7 -385 l0 -378 120 0 120 0 0 165 0 165
203 -2 202 -3 3 -162 2 -163 115 0 115 0 0 385 0 385 -433 0 c-239 0 -437 -3
-440 -7z m633 -218 l0 -105 -200 0 -200 0 0 105 0 105 200 0 200 0 0 -105z"/>
<path d="M2681 714 c-144 -94 -239 -150 -245 -145 -33 26 -448 291 -456 291
-6 0 -10 -144 -10 -380 l0 -380 115 0 115 0 2 220 3 220 118 -75 c65 -41 121
-75 126 -75 4 0 60 34 124 75 l117 74 0 -219 0 -220 115 0 115 0 0 385 c0 212
-1 385 -2 384 -2 0 -108 -70 -237 -155z"/>
<path d="M3012 488 l3 -383 115 0 115 0 3 137 3 138 309 0 310 0 0 245 0 245
-430 0 -430 0 2 -382z m628 137 l0 -135 -200 0 -200 0 0 135 0 135 200 0 200
0 0 -135z"/>
<path d="M3960 485 l0 -385 328 0 327 0 48 55 48 55 -258 2 -258 3 -3 328 -2
327 -115 0 -115 0 0 -385z"/>
<path d="M4810 485 l0 -385 115 0 115 0 0 385 0 385 -115 0 -115 0 0 -385z"/>
<path d="M5146 815 l47 -54 146 -3 146 -3 3 -327 2 -328 115 0 115 0 0 330 0
330 143 0 142 0 43 49 c23 28 42 52 42 55 0 3 -223 6 -496 6 l-495 0 47 -55z"/>
<path d="M6142 488 l3 -383 428 -3 c235 -1 427 0 427 4 0 3 -21 30 -47 60
l-48 54 -262 0 -263 0 0 105 0 105 290 0 290 0 0 55 0 55 -290 0 -290 0 0 110
0 110 268 0 267 0 43 49 c23 28 42 52 42 55 0 3 -194 6 -430 6 l-430 0 2 -382z"/>
<path d="M7070 485 l0 -385 115 0 115 0 0 165 0 165 59 0 58 0 143 -165 143
-165 124 0 c67 0 123 2 123 4 0 3 -70 87 -156 188 -86 101 -159 189 -161 195
-3 7 64 90 149 185 85 95 157 179 162 186 6 9 -21 12 -121 12 l-128 0 -139
-160 -139 -160 -59 0 -58 0 0 160 0 160 -115 0 -115 0 0 -385z"/>
</g>
</svg>
